<svg width="127" height="40" viewBox="0 0 127 40" fill="none" xmlns="http://www.w3.org/2000/svg">
<path d="M12.4356 8.61628C12.7631 8.61628 13.0529 8.82601 13.1522 9.13483L18.0271 24.296C18.0925 24.4996 18.0664 24.7213 17.9553 24.9045L16.0775 28.0016C15.9508 28.2106 15.9407 28.4692 16.0508 28.6873C16.1729 28.9288 16.4224 29.0814 16.6953 29.0814H34.1108C34.4222 29.0814 34.6748 28.8315 34.6748 28.5233C34.6748 28.215 34.4222 27.9651 34.1108 27.9651H18.719C18.3937 27.9651 18.1301 27.7042 18.1301 27.3823C18.1301 27.2767 18.1591 27.1731 18.214 27.0825L19.0616 25.6845C19.1851 25.4809 19.3994 25.3477 19.6384 25.3262L35.2375 23.9229C35.5721 23.8929 35.8459 23.6468 35.9083 23.3201L38.2662 10.9872C38.3539 10.5288 37.9987 10.1047 37.5273 10.1047H15.6892C15.3534 10.1047 15.0583 9.88439 14.9661 9.56491L14.5257 8.03974C14.4335 7.72026 14.1384 7.5 13.8026 7.5H8.60468C8.26957 7.5 8.00839 7.78731 8.04374 8.117C8.07419 8.40087 8.3162 8.61628 8.60468 8.61628H12.4356Z" fill="url(#paint0_linear_8_3391)"/>
<path d="M2.04272 11.9651C2.04272 11.5541 2.37941 11.2209 2.79476 11.2209H10.3151C10.7304 11.2209 11.0671 11.5541 11.0671 11.9651C11.0671 12.3761 10.7304 12.7093 10.3151 12.7093H2.79476C2.37941 12.7093 2.04272 12.3761 2.04272 11.9651Z" fill="url(#paint1_linear_8_3391)"/>
<path d="M6.93099 16.0581C6.51564 16.0581 6.17896 16.3913 6.17896 16.8023C6.17896 17.2133 6.51564 17.5465 6.93099 17.5465H11.0672C11.4825 17.5465 11.8192 17.2133 11.8192 16.8023C11.8192 16.3913 11.4825 16.0581 11.0672 16.0581H6.93099Z" fill="url(#paint2_linear_8_3391)"/>
<path d="M2.41866 20.5233C2.00331 20.5233 1.66663 20.8565 1.66663 21.2675C1.66663 21.6785 2.00331 22.0117 2.41866 22.0117H11.8191C12.2344 22.0117 12.5711 21.6785 12.5711 21.2675C12.5711 20.8565 12.2344 20.5233 11.8191 20.5233H2.41866Z" fill="url(#paint3_linear_8_3391)"/>
<path d="M7.49493 24.2442C7.18344 24.2442 6.93091 24.4941 6.93091 24.8023C6.93091 25.1106 7.18344 25.3604 7.49493 25.3604H12.3831C12.6946 25.3604 12.9472 25.1106 12.9472 24.8023C12.9472 24.4941 12.6946 24.2442 12.3831 24.2442H7.49493Z" fill="url(#paint4_linear_8_3391)"/>
<path d="M22.6423 30.9418C22.6423 29.5033 21.4638 28.3372 20.0102 28.3372C18.5565 28.3372 17.3781 29.5033 17.3781 30.9418C17.3781 32.3803 18.5565 33.5465 20.0102 33.5465C21.4638 33.5465 22.6423 32.3803 22.6423 30.9418Z" fill="#FD53A3"/>
<path d="M36.9309 30.9418C36.9309 29.5033 35.7524 28.3372 34.2987 28.3372C32.8451 28.3372 31.6666 29.5033 31.6666 30.9418C31.6666 32.3803 32.8451 33.5465 34.2987 33.5465C35.7524 33.5465 36.9309 32.3803 36.9309 30.9418Z" fill="#FC68AD"/>
<g clip-path="url(#clip0_8_3391)">
<path d="M46.6666 7.39349H52.9047C54.5191 7.39349 55.7298 7.83628 56.5371 8.72187C57.3442 9.60745 57.7566 10.9184 57.7741 12.6549L57.8268 23.1256C57.8443 25.3309 57.4583 26.9891 56.6687 28.1005C55.879 29.2118 54.5717 29.7674 52.7468 29.7674H46.6666V7.39349ZM52.0098 25.8084C52.8345 25.8084 53.2469 25.409 53.2469 24.6102V13.0716C53.2469 12.5681 53.203 12.1947 53.1153 11.9516C53.0451 11.6912 52.9047 11.5175 52.6942 11.4307C52.4836 11.3439 52.1589 11.3005 51.7203 11.3005H51.2202V25.8084H52.0098ZM59.0418 29.7674L61.2264 7.39349H68.8859L71.0442 29.7674H66.7539L66.438 26.147H63.7006L63.4374 29.7674H59.0418ZM64.0428 22.5786H66.0959L65.0957 11.1963H64.8851L64.0428 22.5786ZM74.3703 29.7674V11.6912H71.6852V7.39349H81.5823V11.6912H78.8975V29.7674H74.3703ZM82.2525 29.7674L84.4372 7.39349H92.0966L94.255 29.7674H89.9646L89.6488 26.147H86.9114L86.6482 29.7674H82.2525ZM87.2535 22.5786H89.3066L88.3064 11.1963H88.0958L87.2535 22.5786ZM95.6331 29.7674V7.39349H102.529L104.424 21.0419L106.319 7.39349H113.268V29.7674H109.136V13.6447L106.53 29.7674H102.477L99.7128 13.6447V29.7674H95.6331ZM115.271 7.39349H121.246C123.053 7.39349 124.343 7.9752 125.116 9.13861C125.887 10.2847 126.274 11.969 126.274 14.1916C126.274 16.4142 125.932 18.09 125.247 19.2186C124.563 20.3473 123.334 20.9116 121.562 20.9116H119.72V29.7674H115.271V7.39349ZM119.983 16.8744C120.526 16.8744 120.921 16.7789 121.167 16.5879C121.431 16.3795 121.597 16.093 121.667 15.7284C121.755 15.3463 121.799 14.8081 121.799 14.1135C121.799 13.1758 121.694 12.4986 121.483 12.0819C121.273 11.6651 120.852 11.4567 120.22 11.4567H119.72V16.8744H119.983Z" fill="white"/>
<path d="M50.4899 32.4651V34.4186H50.2897V32.8558L49.5142 34.1702H49.4155L48.6399 32.8642V34.4186H48.4397V32.4651H48.6117L49.469 33.9135L50.3179 32.4651H50.4899ZM53.2172 33.8967H52.1173L51.8804 34.4186H51.6633L52.5657 32.4651H52.7716L53.674 34.4186H53.4541L53.2172 33.8967ZM53.141 33.7293L52.6672 32.68L52.1935 33.7293H53.141ZM56.1947 34.4186L55.7434 33.7907C55.6927 33.7963 55.64 33.7991 55.5855 33.7991H55.0553V34.4186H54.8466V32.4651H55.5855C55.8374 32.4651 56.0348 32.5246 56.1777 32.6437C56.3206 32.7628 56.3921 32.9265 56.3921 33.1349C56.3921 33.2874 56.3526 33.4167 56.2736 33.5228C56.1965 33.627 56.0856 33.7023 55.9408 33.7488L56.4231 34.4186H56.1947ZM55.5799 33.6232C55.7754 33.6232 55.9249 33.5805 56.0283 33.4949C56.1317 33.4093 56.1834 33.2893 56.1834 33.1349C56.1834 32.9767 56.1317 32.8558 56.0283 32.7721C55.9249 32.6865 55.7754 32.6437 55.5799 32.6437H55.0553V33.6232H55.5799ZM58.3426 33.5005L57.9393 33.9051V34.4186H57.7306V32.4651H57.9393V33.6456L59.0983 32.4651H59.3381L58.4836 33.3498L59.3973 34.4186H59.1491L58.3426 33.5005ZM61.9776 34.24V34.4186H60.5816V32.4651H61.9353V32.6437H60.7903V33.3386H61.8112V33.5144H60.7903V34.24H61.9776ZM63.6977 32.6437H63.0039V32.4651H64.6001V32.6437H63.9064V34.4186H63.6977V32.6437ZM66.5185 32.4651C66.7704 32.4651 66.9678 32.5246 67.1107 32.6437C67.2536 32.7628 67.325 32.9265 67.325 33.1349C67.325 33.3432 67.2536 33.507 67.1107 33.626C66.9678 33.7432 66.7704 33.8019 66.5185 33.8019H65.9883V34.4186H65.7796V32.4651H66.5185ZM66.5128 33.6205C66.7083 33.6205 66.8578 33.5786 66.9612 33.4949C67.0646 33.4093 67.1163 33.2893 67.1163 33.1349C67.1163 32.9767 67.0646 32.8558 66.9612 32.7721C66.8578 32.6865 66.7083 32.6437 66.5128 32.6437H65.9883V33.6205H66.5128ZM68.6223 32.4651H68.831V34.24H69.9364V34.4186H68.6223V32.4651ZM72.3725 33.8967H71.2726L71.0357 34.4186H70.8186L71.721 32.4651H71.9269L72.8296 34.4186H72.6096L72.3725 33.8967ZM72.2963 33.7293L71.8225 32.68L71.3488 33.7293H72.2963ZM74.8319 34.4353C74.6364 34.4353 74.4596 34.3926 74.3017 34.307C74.1457 34.2214 74.0225 34.1033 73.9323 33.9526C73.8439 33.8 73.7997 33.6298 73.7997 33.4419C73.7997 33.2539 73.8439 33.0846 73.9323 32.9339C74.0225 32.7814 74.1466 32.6623 74.3045 32.5767C74.4625 32.4912 74.6392 32.4484 74.8347 32.4484C74.9814 32.4484 75.1167 32.4725 75.2408 32.5209C75.3649 32.5693 75.4702 32.64 75.5567 32.733L75.4241 32.8642C75.27 32.7098 75.0754 32.6326 74.8404 32.6326C74.6843 32.6326 74.5424 32.6679 74.4145 32.7386C74.2867 32.8093 74.1861 32.906 74.1128 33.0288C74.0413 33.1516 74.0056 33.2893 74.0056 33.4419C74.0056 33.5944 74.0413 33.7321 74.1128 33.8549C74.1861 33.9777 74.2867 34.0744 74.4145 34.1451C74.5424 34.2158 74.6843 34.2512 74.8404 34.2512C75.0772 34.2512 75.2718 34.173 75.4241 34.0167L75.5567 34.1479C75.4702 34.2409 75.364 34.3126 75.238 34.3628C75.1139 34.4112 74.9785 34.4353 74.8319 34.4353ZM78.2433 34.24V34.4186H76.8473V32.4651H78.201V32.6437H77.056V33.3386H78.0769V33.5144H77.056V34.24H78.2433ZM82.748 32.4651H83.5517C83.7604 32.4651 83.9446 32.507 84.1045 32.5907C84.2643 32.6726 84.3883 32.7879 84.4767 32.9367C84.5651 33.0837 84.6093 33.2521 84.6093 33.4419C84.6093 33.6316 84.5651 33.8009 84.4767 33.9498C84.3883 34.0967 84.2643 34.2121 84.1045 34.2958C83.9446 34.3777 83.7604 34.4186 83.5517 34.4186H82.748V32.4651ZM83.5404 34.24C83.7134 34.24 83.8647 34.2065 83.9945 34.1395C84.1242 34.0707 84.2248 33.9767 84.2962 33.8577C84.3677 33.7367 84.4034 33.5981 84.4034 33.4419C84.4034 33.2856 84.3677 33.1479 84.2962 33.0288C84.2248 32.9079 84.1242 32.8139 83.9945 32.747C83.8647 32.6781 83.7134 32.6437 83.5404 32.6437H82.9567V34.24H83.5404ZM87.1342 33.8967H86.0344L85.7975 34.4186H85.5803L86.4828 32.4651H86.6886L87.5911 34.4186H87.3711L87.1342 33.8967ZM87.0581 33.7293L86.5843 32.68L86.1105 33.7293H87.0581ZM89.0481 32.6437H88.3544V32.4651H89.9506V32.6437H89.2568V34.4186H89.0481V32.6437ZM92.2696 33.8967H91.1698L90.9329 34.4186H90.7158L91.6182 32.4651H91.8241L92.7265 34.4186H92.5065L92.2696 33.8967ZM92.1935 33.7293L91.7197 32.68L91.2459 33.7293H92.1935ZM98.4147 34.4186L97.9635 33.7907C97.9127 33.7963 97.8601 33.7991 97.8055 33.7991H97.2754V34.4186H97.0667V32.4651H97.8055C98.0575 32.4651 98.2549 32.5246 98.3978 32.6437C98.5407 32.7628 98.6121 32.9265 98.6121 33.1349C98.6121 33.2874 98.5726 33.4167 98.4936 33.5228C98.4166 33.627 98.3056 33.7023 98.1609 33.7488L98.6431 34.4186H98.4147ZM97.7999 33.6232C97.9954 33.6232 98.1449 33.5805 98.2483 33.4949C98.3517 33.4093 98.4034 33.2893 98.4034 33.1349C98.4034 32.9767 98.3517 32.8558 98.2483 32.7721C98.1449 32.6865 97.9954 32.6437 97.7999 32.6437H97.2754V33.6232H97.7999ZM101.347 34.24V34.4186H99.9507V32.4651H101.304V32.6437H100.159V33.3386H101.18V33.5144H100.159V34.24H101.347ZM103.228 34.4353C103.081 34.4353 102.94 34.4121 102.805 34.3656C102.671 34.3191 102.568 34.2577 102.494 34.1814L102.576 34.0223C102.648 34.093 102.743 34.1507 102.861 34.1953C102.98 34.2381 103.102 34.2595 103.228 34.2595C103.404 34.2595 103.537 34.2279 103.625 34.1646C103.714 34.0995 103.758 34.0158 103.758 33.9135C103.758 33.8353 103.733 33.773 103.685 33.7265C103.638 33.68 103.579 33.6446 103.51 33.6205C103.44 33.5944 103.343 33.5665 103.219 33.5367C103.071 33.4995 102.952 33.4642 102.864 33.4307C102.776 33.3953 102.699 33.3423 102.635 33.2716C102.573 33.2009 102.542 33.1051 102.542 32.9842C102.542 32.8856 102.569 32.7963 102.621 32.7163C102.674 32.6344 102.755 32.5693 102.864 32.5209C102.973 32.4725 103.108 32.4484 103.27 32.4484C103.383 32.4484 103.493 32.4642 103.6 32.4958C103.709 32.5256 103.803 32.5674 103.882 32.6214L103.811 32.786C103.729 32.7321 103.64 32.6921 103.546 32.666C103.452 32.6381 103.36 32.6242 103.27 32.6242C103.097 32.6242 102.966 32.6577 102.878 32.7246C102.792 32.7898 102.748 32.8744 102.748 32.9786C102.748 33.0567 102.772 33.12 102.819 33.1684C102.868 33.2149 102.928 33.2512 102.999 33.2772C103.073 33.3014 103.17 33.3284 103.293 33.3581C103.437 33.3935 103.554 33.4288 103.642 33.4642C103.733 33.4977 103.809 33.5498 103.871 33.6205C103.933 33.6893 103.964 33.7832 103.964 33.9023C103.964 34.0009 103.936 34.0912 103.882 34.173C103.829 34.253 103.748 34.3172 103.637 34.3656C103.526 34.4121 103.389 34.4353 103.228 34.4353ZM106.661 34.24V34.4186H105.265V32.4651H106.618V32.6437H105.473V33.3386H106.494V33.5144H105.473V34.24H106.661ZM109.235 33.8967H108.136L107.899 34.4186H107.682L108.584 32.4651H108.79L109.692 34.4186H109.472L109.235 33.8967ZM109.159 33.7293L108.686 32.68L108.212 33.7293H109.159ZM112.213 34.4186L111.761 33.7907C111.711 33.7963 111.658 33.7991 111.603 33.7991H111.073V34.4186H110.865V32.4651H111.603C111.855 32.4651 112.053 32.5246 112.196 32.6437C112.339 32.7628 112.41 32.9265 112.41 33.1349C112.41 33.2874 112.371 33.4167 112.292 33.5228C112.214 33.627 112.104 33.7023 111.959 33.7488L112.441 34.4186H112.213ZM111.598 33.6232C111.793 33.6232 111.943 33.5805 112.046 33.4949C112.15 33.4093 112.201 33.2893 112.201 33.1349C112.201 32.9767 112.15 32.8558 112.046 32.7721C111.943 32.6865 111.793 32.6437 111.598 32.6437H111.073V33.6232H111.598ZM114.606 34.4353C114.41 34.4353 114.234 34.3926 114.076 34.307C113.92 34.2214 113.797 34.1033 113.706 33.9526C113.618 33.8 113.574 33.6298 113.574 33.4419C113.574 33.2539 113.618 33.0846 113.706 32.9339C113.797 32.7814 113.921 32.6623 114.079 32.5767C114.237 32.4912 114.413 32.4484 114.609 32.4484C114.755 32.4484 114.891 32.4725 115.015 32.5209C115.139 32.5693 115.244 32.64 115.331 32.733L115.198 32.8642C115.044 32.7098 114.849 32.6326 114.614 32.6326C114.458 32.6326 114.316 32.6679 114.189 32.7386C114.061 32.8093 113.96 32.906 113.887 33.0288C113.815 33.1516 113.78 33.2893 113.78 33.4419C113.78 33.5944 113.815 33.7321 113.887 33.8549C113.96 33.9777 114.061 34.0744 114.189 34.1451C114.316 34.2158 114.458 34.2512 114.614 34.2512C114.851 34.2512 115.046 34.173 115.198 34.0167L115.331 34.1479C115.244 34.2409 115.138 34.3126 115.012 34.3628C114.888 34.4112 114.753 34.4353 114.606 34.4353ZM118.271 32.4651V34.4186H118.065V33.5172H116.83V34.4186H116.621V32.4651H116.83V33.3358H118.065V32.4651H118.271Z" fill="url(#paint5_linear_8_3391)"/>
</g>
<defs>
<linearGradient id="paint0_linear_8_3391" x1="61.7479" y1="26.4767" x2="13.6184" y2="25.3368" gradientUnits="userSpaceOnUse">
<stop stop-color="#F8C1DB"/>
<stop offset="1" stop-color="#FF2A8E"/>
</linearGradient>
<linearGradient id="paint1_linear_8_3391" x1="3.54679" y1="26.4768" x2="14.4513" y2="26.4768" gradientUnits="userSpaceOnUse">
<stop stop-color="#FF0091"/>
<stop offset="1" stop-color="#FFCEEA"/>
</linearGradient>
<linearGradient id="paint2_linear_8_3391" x1="3.54684" y1="26.4767" x2="14.4513" y2="26.4767" gradientUnits="userSpaceOnUse">
<stop stop-color="#FF0091"/>
<stop offset="1" stop-color="#FFCEEA"/>
</linearGradient>
<linearGradient id="paint3_linear_8_3391" x1="3.54671" y1="26.4768" x2="14.4512" y2="26.4768" gradientUnits="userSpaceOnUse">
<stop stop-color="#FF0091"/>
<stop offset="1" stop-color="#FFCEEA"/>
</linearGradient>
<linearGradient id="paint4_linear_8_3391" x1="3.54676" y1="26.4767" x2="14.4512" y2="26.4767" gradientUnits="userSpaceOnUse">
<stop stop-color="#FF0091"/>
<stop offset="1" stop-color="#FFCEEA"/>
</linearGradient>
<linearGradient id="paint5_linear_8_3391" x1="48.6012" y1="35.3488" x2="121.587" y2="35.3488" gradientUnits="userSpaceOnUse">
<stop stop-color="#FF0091"/>
<stop offset="1" stop-color="#FFA4D8"/>
</linearGradient>
<clipPath id="clip0_8_3391">
<rect width="86.6667" height="40" fill="white" transform="translate(40)"/>
</clipPath>
</defs>
</svg>
